<?xml version="1.0" encoding="UTF-8"?>
<svg width="12px" height="13px" viewBox="0 0 12 13" version="1.1" xmlns="http://www.w3.org/2000/svg" xmlns:xlink="http://www.w3.org/1999/xlink">
    <!-- Generator: Sketch 52.5 (67469) - http://www.bohemiancoding.com/sketch -->
    <title>alarm-clock</title>
    <desc>Created with Sketch.</desc>
    <g id="V4_Desktop" stroke="none" stroke-width="1" fill="none" fill-rule="evenodd">
        <g id="Home_Stakes" transform="translate(-22.000000, -114.000000)" fill="#FA7268" fill-rule="nonzero">
            <g id="Group-5" transform="translate(22.000000, 110.000000)">
                <g id="Group-4">
                    <g id="alarm-clock" transform="translate(0.000000, 4.000000)">
                        <path d="M11.0925,4.94053315 C11.65,4.42007616 12,3.67366468 12,2.84347232 C12,1.2719461 10.7475,0 9.2,0 C8.0675,0 7.0925,0.680402304 6.6525,1.66292354 C6.22,1.61214725 5.78,1.61214725 5.3475,1.66292354 C4.9075,0.680402304 3.9325,0 2.8,0 C1.2525,0 0,1.2719461 0,2.84347232 C0,3.67366468 0.35,4.42007616 0.9075,4.94053315 C0.5825,5.66155649 0.4,6.46636071 0.4,7.31178596 C0.4,8.66243531 0.865,9.90391563 1.6375,10.8788204 L0.575,11.9578166 C0.34,12.1964652 0.34,12.582365 0.575,12.8184748 C0.81,13.0571233 1.19,13.0571233 1.4225,12.8184748 L2.485,11.7394786 C4.5225,13.4074797 7.4525,13.4252514 9.51,11.7394786 L10.575,12.8210136 C10.81,13.0596621 11.19,13.0596621 11.4225,12.8210136 C11.6575,12.582365 11.6575,12.1964652 11.4225,11.9603554 L10.36,10.8813592 C11.135,9.90645445 11.5975,8.66497412 11.5975,7.31432477 C11.6,6.46636071 11.4175,5.66155649 11.0925,4.94053315 Z M9.2,1.21863099 C10.0825,1.21863099 10.8,1.94727077 10.8,2.84347232 C10.8,3.22683332 10.6675,3.57972854 10.45,3.85645933 C9.795,2.98818475 8.9,2.3179377 7.8675,1.94727077 C8.1525,1.50805585 8.6425,1.21863099 9.2,1.21863099 Z M1.2,2.84347232 C1.2,1.94727077 1.9175,1.21863099 2.8,1.21863099 C3.3575,1.21863099 3.8475,1.50805585 4.135,1.94727077 C3.1,2.3179377 2.205,2.98818475 1.5525,3.85645933 C1.3325,3.57972854 1.2,3.22683332 1.2,2.84347232 Z M6,11.7800996 C3.5675,11.7800996 1.6,9.78205253 1.6,7.31178596 C1.6,4.84913583 3.56,2.84347232 6,2.84347232 C8.435,2.84347232 10.4,4.8440582 10.4,7.31178596 C10.4,9.78205253 8.4325,11.7800996 6,11.7800996 Z M7.155,9.35045406 L5.43,8.14451714 C5.3475,8.08866322 5.3,7.99472708 5.3,7.89317449 L5.3,4.56986622 C5.3,4.40230446 5.435,4.26520848 5.6,4.26520848 L6.4,4.26520848 C6.565,4.26520848 6.7,4.40230446 6.7,4.56986622 L6.7,7.30416951 L7.95,8.17752173 C8.0875,8.27399668 8.12,8.46186896 8.0275,8.60150376 L7.575,9.27175081 C7.48,9.40884679 7.2925,9.4443902 7.155,9.35045406 Z" id="Shape"></path>
                    </g>
                </g>
            </g>
        </g>
    </g>
</svg>