<?xml version="1.0" encoding="UTF-8"?>
<svg width="10px" height="10px" viewBox="0 0 10 10" version="1.1" xmlns="http://www.w3.org/2000/svg" xmlns:xlink="http://www.w3.org/1999/xlink">
    <!-- Generator: Sketch 52.5 (67469) - http://www.bohemiancoding.com/sketch -->
    <title>info-circle</title>
    <desc>Created with Sketch.</desc>
    <g id="V4_Desktop" stroke="none" stroke-width="1" fill="none" fill-rule="evenodd">
        <g id="Home_Stakes" transform="translate(-805.000000, -168.000000)" fill="#01D0FF" fill-rule="nonzero">
            <g id="Group-11" transform="translate(341.000000, 143.000000)">
                <g id="NodeItem_Stake">
                    <g id="Node">
                        <g id="info-circle" transform="translate(464.000000, 25.000000)">
                            <path d="M5,0 C2.23877016,0 0,2.23957661 0,5 C0,7.76203629 2.23877016,10 5,10 C7.76122984,10 10,7.76203629 10,5 C10,2.23957661 7.76122984,0 5,0 Z M5,9.03225806 C2.77153226,9.03225806 0.967741935,7.22921371 0.967741935,5 C0.967741935,2.77227823 2.7716129,0.967741935 5,0.967741935 C7.22764113,0.967741935 9.03225806,2.77159274 9.03225806,5 C9.03225806,7.22842742 7.22921371,9.03225806 5,9.03225806 Z M5,2.21774194 C5.46766129,2.21774194 5.84677419,2.59685484 5.84677419,3.06451613 C5.84677419,3.53217742 5.46766129,3.91129032 5,3.91129032 C4.53233871,3.91129032 4.15322581,3.53217742 4.15322581,3.06451613 C4.15322581,2.59685484 4.53233871,2.21774194 5,2.21774194 Z M6.12903226,7.33870968 C6.12903226,7.47231855 6.02070565,7.58064516 5.88709677,7.58064516 L4.11290323,7.58064516 C3.97929435,7.58064516 3.87096774,7.47231855 3.87096774,7.33870968 L3.87096774,6.85483871 C3.87096774,6.72122984 3.97929435,6.61290323 4.11290323,6.61290323 L4.35483871,6.61290323 L4.35483871,5.32258065 L4.11290323,5.32258065 C3.97929435,5.32258065 3.87096774,5.21425403 3.87096774,5.08064516 L3.87096774,4.59677419 C3.87096774,4.46316532 3.97929435,4.35483871 4.11290323,4.35483871 L5.40322581,4.35483871 C5.53683468,4.35483871 5.64516129,4.46316532 5.64516129,4.59677419 L5.64516129,6.61290323 L5.88709677,6.61290323 C6.02070565,6.61290323 6.12903226,6.72122984 6.12903226,6.85483871 L6.12903226,7.33870968 Z" id="Shape"></path>
                        </g>
                    </g>
                </g>
            </g>
        </g>
    </g>
</svg>