<svg width="88px" height="119px" viewBox="0 0 88 119" version="1.1" xmlns="http://www.w3.org/2000/svg" xmlns:xlink="http://www.w3.org/1999/xlink">
    <defs>
        <path d="M26.0029349,103.406264 C25.9525206,105.183637 26.5515929,106.295612 27.8001517,106.74219 C29.6729898,107.412057 34.2035742,108.924218 42.9507261,108.649621 C51.697878,108.375024 56.7232199,106.636518 58.5212411,105.841705 C59.7199219,105.311829 60.2757308,104.364594 60.1886677,103 L26.0029349,103.406264 Z" id="path-1"></path>
        <filter x="-38.0%" y="-193.6%" width="176.0%" height="557.5%" filterUnits="objectBoundingBox" id="filter-2">
            <feOffset dx="0" dy="2" in="SourceAlpha" result="shadowOffsetOuter1"></feOffset>
            <feGaussianBlur stdDeviation="4" in="shadowOffsetOuter1" result="shadowBlurOuter1"></feGaussianBlur>
            <feColorMatrix values="0 0 0 0 0   0 0 0 0 0.778362772   0 0 0 0 1  0 0 0 0.730780118 0" type="matrix" in="shadowBlurOuter1"></feColorMatrix>
        </filter>
        <linearGradient x1="93.6717322%" y1="10.3457713%" x2="7.03112296%" y2="88.978948%" id="linearGradient-3">
            <stop stop-color="#FFFFFF" offset="0%"></stop>
            <stop stop-color="#000000" offset="100%"></stop>
        </linearGradient>
        <radialGradient cx="68.7538445%" cy="24.5061656%" fx="68.7538445%" fy="24.5061656%" r="87.5029388%" id="radialGradient-4">
            <stop stop-color="#FFFFFF" offset="0%"></stop>
            <stop stop-color="#D4D4D4" offset="100%"></stop>
        </radialGradient>
        <circle id="path-5" cx="1.5" cy="2.5" r="1.5"></circle>
        <filter x="-200.0%" y="-200.0%" width="500.0%" height="500.0%" filterUnits="objectBoundingBox" id="filter-6">
            <feOffset dx="0" dy="0" in="SourceAlpha" result="shadowOffsetOuter1"></feOffset>
            <feGaussianBlur stdDeviation="2" in="shadowOffsetOuter1" result="shadowBlurOuter1"></feGaussianBlur>
            <feColorMatrix values="0 0 0 0 0.49415046   0 0 0 0 0.826234102   0 0 0 0 0.129877269  0 0 0 1 0" type="matrix" in="shadowBlurOuter1"></feColorMatrix>
        </filter>
        <circle id="path-7" cx="6.5" cy="1.5" r="1.5"></circle>
        <filter x="-200.0%" y="-200.0%" width="500.0%" height="500.0%" filterUnits="objectBoundingBox" id="filter-8">
            <feOffset dx="0" dy="0" in="SourceAlpha" result="shadowOffsetOuter1"></feOffset>
            <feGaussianBlur stdDeviation="2" in="shadowOffsetOuter1" result="shadowBlurOuter1"></feGaussianBlur>
            <feColorMatrix values="0 0 0 0 1   0 0 0 0 0   0 0 0 0 0  0 0 0 0.5 0" type="matrix" in="shadowBlurOuter1"></feColorMatrix>
        </filter>
        <ellipse id="path-9" cx="22" cy="49" rx="4" ry="6"></ellipse>
        <filter x="-75.0%" y="-50.0%" width="250.0%" height="200.0%" filterUnits="objectBoundingBox" id="filter-10">
            <feOffset dx="0" dy="0" in="SourceAlpha" result="shadowOffsetOuter1"></feOffset>
            <feGaussianBlur stdDeviation="2" in="shadowOffsetOuter1" result="shadowBlurOuter1"></feGaussianBlur>
            <feColorMatrix values="0 0 0 0 1   0 0 0 0 1   0 0 0 0 1  0 0 0 1 0" type="matrix" in="shadowBlurOuter1"></feColorMatrix>
        </filter>
        <ellipse id="path-11" cx="38" cy="50" rx="4" ry="6"></ellipse>
        <filter x="-75.0%" y="-50.0%" width="250.0%" height="200.0%" filterUnits="objectBoundingBox" id="filter-12">
            <feOffset dx="0" dy="0" in="SourceAlpha" result="shadowOffsetOuter1"></feOffset>
            <feGaussianBlur stdDeviation="2" in="shadowOffsetOuter1" result="shadowBlurOuter1"></feGaussianBlur>
            <feColorMatrix values="0 0 0 0 1   0 0 0 0 1   0 0 0 0 1  0 0 0 1 0" type="matrix" in="shadowBlurOuter1"></feColorMatrix>
        </filter>
        <path d="M17,30.3066836 C18.3525083,28.0308259 20.0975377,26.9297544 22.2350881,27.003469 C24.3726385,27.0771837 25.9609425,28.4093607 27,31" id="path-13"></path>
        <filter x="-73.7%" y="-175.0%" width="246.7%" height="457.5%" filterUnits="objectBoundingBox" id="filter-14">
            <feMorphology radius="1" operator="dilate" in="SourceAlpha" result="shadowSpreadOuter1"></feMorphology>
            <feOffset dx="0" dy="0" in="shadowSpreadOuter1" result="shadowOffsetOuter1"></feOffset>
            <feMorphology radius="1" operator="erode" in="SourceAlpha" result="shadowInner"></feMorphology>
            <feOffset dx="0" dy="0" in="shadowInner" result="shadowInner"></feOffset>
            <feComposite in="shadowOffsetOuter1" in2="shadowInner" operator="out" result="shadowOffsetOuter1"></feComposite>
            <feGaussianBlur stdDeviation="2" in="shadowOffsetOuter1" result="shadowBlurOuter1"></feGaussianBlur>
            <feColorMatrix values="0 0 0 0 1   0 0 0 0 1   0 0 0 0 1  0 0 0 1 0" type="matrix" in="shadowBlurOuter1"></feColorMatrix>
        </filter>
        <path d="M35,30.3066836 C36.3525083,28.0308259 38.0975377,26.9297544 40.2350881,27.003469 C42.3726385,27.0771837 43.9609425,28.4093607 45,31" id="path-15"></path>
        <filter x="-73.7%" y="-175.0%" width="246.7%" height="457.5%" filterUnits="objectBoundingBox" id="filter-16">
            <feMorphology radius="1" operator="dilate" in="SourceAlpha" result="shadowSpreadOuter1"></feMorphology>
            <feOffset dx="0" dy="0" in="shadowSpreadOuter1" result="shadowOffsetOuter1"></feOffset>
            <feMorphology radius="1" operator="erode" in="SourceAlpha" result="shadowInner"></feMorphology>
            <feOffset dx="0" dy="0" in="shadowInner" result="shadowInner"></feOffset>
            <feComposite in="shadowOffsetOuter1" in2="shadowInner" operator="out" result="shadowOffsetOuter1"></feComposite>
            <feGaussianBlur stdDeviation="2" in="shadowOffsetOuter1" result="shadowBlurOuter1"></feGaussianBlur>
            <feColorMatrix values="0 0 0 0 1   0 0 0 0 1   0 0 0 0 1  0 0 0 1 0" type="matrix" in="shadowBlurOuter1"></feColorMatrix>
        </filter>
        <linearGradient x1="50%" y1="0%" x2="50%" y2="97.2317443%" id="linearGradient-17">
            <stop stop-color="#007BFF" offset="0%"></stop>
            <stop stop-color="#0069D9" offset="100%"></stop>
        </linearGradient>
    </defs>
    <g id="Page-1" stroke="none" stroke-width="1" fill="none" fill-rule="evenodd">
        <g id="Artboard" transform="translate(-1155.000000, -55.000000)">
            <g id="ConfusedLuna" transform="translate(1155.000000, 55.000000)">
                <g id="Path-12">
                    <use fill="black" fill-opacity="1" filter="url(#filter-2)" xlink:href="#path-1"></use>
                    <use fill="#5DCBFF" fill-rule="evenodd" xlink:href="#path-1"></use>
                </g>
                <path d="M16.0048061,96.6652765 C15.9222503,99.5758064 16.9032587,101.396717 18.9478313,102.128009 C22.0146901,103.224947 29.4337308,105.701181 43.7575952,105.251515 C58.0814595,104.80185 66.3106884,101.954967 69.255031,100.653423 C71.2179261,99.7857265 72.1280887,98.2345857 71.985519,96 L16.0048061,96.6652765 Z" id="Path-12" fill="#B6B6B6"></path>
                <path d="M11.0056813,91.7864223 C10.9080922,95.226955 12.0677407,97.3794508 14.4846267,98.2439097 C18.1099556,99.5405981 26.8799918,102.46775 43.8122091,101.936201 C60.7444263,101.404653 70.4721847,98.0393565 73.9526874,96.5008034 C76.2730225,95.4751013 77.3489243,93.6415002 77.1803929,91 L11.0056813,91.7864223 Z" id="Path-12" fill="#CACACA"></path>
                <path d="M11.144673,66 L76.3507741,66.0191716 C78.7076953,69.4099381 80.538463,72.4646102 81.8430774,75.1831878 C83.7999989,79.2610544 84.9843952,85.7961494 83.8142,87.5843612 C82.6440049,89.3725731 74.9211499,93.5007425 68.7304253,95.2210415 C62.5397006,96.9413404 54.409787,98.4322933 42.0128404,98.8620151 C29.6158938,99.291737 23.4353104,97.9578763 16.7711773,96.1810407 C10.1070442,94.4042051 4.25088634,89.5302833 3.23391015,87.6156038 C2.21693396,85.7009243 4.7630917,79.8991733 6.13378946,76.1538379 C7.04758798,73.6569477 8.71788248,70.272335 11.144673,66 Z" id="Rectangle-3" fill="#EAEAEA"></path>
                <path d="M10.6470289,66.5579468 C8.6384404,70.6084137 7.24715076,73.5729886 6.47315999,75.4516714 C3.78209709,81.9836012 2.55769964,86.8052883 3.37983818,87.5830298 C4.02643659,88.1947106 10.2160852,96.5213757 16.6578644,93.7353794 C24.9239694,90.1603827 31.8008753,81.3555664 40.9548885,77.4028857 C50.5335532,73.2668416 62.2672168,72.4219114 67.384393,71.0906621 C69.588108,70.5173588 72.6539341,69.0064537 76.5818712,66.5579468 L10.6470289,66.5579468 Z" id="Path-9" fill="#CCCCCC"></path>
                <path d="M5.22749528,32 C2.51766404,33.2254441 0.970599764,34.440362 0.58630247,35.6447535 C0.390727848,36.2576863 -0.0974121465,37.5483586 0.017213442,40.6922718 C0.13183903,43.8361849 0.386923562,45.4664637 0.58630247,45.9678646 C1.03524187,47.0968638 2.58230614,48.4084731 5.22749528,49.9026927 L5.22749528,32 Z" id="Path-13" fill="#CACACA"></path>
                <path d="M8.7685618,14.786798 C12.2906308,10.9053211 28.0442009,8.37577286 46.5362737,8.37577286 C65.0283465,8.37577286 76.2525233,13.0348963 78.6131725,15.6389975 C80.9738216,18.2430986 87.3616425,27.6425686 87.3616425,40.1646079 C87.3616425,52.6866472 84.9686395,60.2014009 82.2673685,63.8091685 C79.5660976,67.4169362 64.6398857,69.5699761 46.9383978,69.9836915 C29.2369099,70.3974068 12.1294683,69.1566007 7.94684202,64.7261018 C3.76421573,60.295603 2.58932007,49.5746888 2.09552904,41.0938832 C1.60173802,32.6130776 5.24649276,18.668275 8.7685618,14.786798 Z" id="Path-4" fill="#EAEAEA"></path>
                <path d="M79.7506184,69.440349 C79.0232898,69.8878966 71.2166392,77.9058441 71.1197237,81.1111293 C71.0228082,84.3164145 77.182951,83.7326038 79.933831,83.3836291 C81.7677511,83.1509794 83.9380864,80.572891 86.444837,75.649364 C86.082942,73.4957439 85.7185818,72.1050286 85.3517564,71.4772181 C84.8015183,70.5355023 80.4779471,68.9928014 79.7506184,69.440349 Z" id="Path-11" fill="#F2F2F2" transform="translate(78.781715, 76.512401) scale(-1, 1) translate(-78.781715, -76.512401) "></path>
                <path d="M78,32 C81.4608024,32.7759662 83.3738349,33.831863 83.7390975,35.1676904 C84.0263548,36.2182393 84.8733888,37.692269 84.8791122,41.5910049 C84.882317,43.7740094 83.9501135,46.7302402 83.5023532,47.4497754 C82.8748508,48.4581499 81.0407331,49.1225948 78,49.4431101 L78,32 Z" id="Path-14" fill="#F6F6F6"></path>
                <path d="M82.2274953,32 C79.517664,33.2254441 77.9705998,34.440362 77.5863025,35.6447535 C77.3907278,36.2576863 76.9025879,37.5483586 77.0172134,40.6922718 C77.131839,43.8361849 77.3869236,45.4664637 77.5863025,45.9678646 C78.0352419,47.0968638 79.5823061,48.4084731 82.2274953,49.9026927 C82.718064,46.0067642 82.9633484,43.0749318 82.9633484,41.1071955 C82.9633484,39.1394591 82.718064,36.1037273 82.2274953,32 Z" id="Path-13" fill="#CFCFCF" transform="translate(79.981674, 40.951346) scale(-1, 1) translate(-79.981674, -40.951346) "></path>
                <path d="M78.7694388,78.5297323 C73.6997125,80.0276508 71.14952,81.2836005 71.1188611,82.2975814 C71.0728728,83.8185526 76.9631388,83.9426702 79.6392795,83.3696663 C81.4233734,82.9876636 83.5054655,80.4142295 85.8855558,75.649364 C85.5236608,73.4957439 85.1593006,72.1050286 84.7924752,71.4772181 C84.4256498,70.8494075 82.417971,73.2002456 78.7694388,78.5297323 Z" id="Path-11" fill="#CACACA" transform="translate(78.502075, 77.531551) scale(-1, 1) translate(-78.502075, -77.531551) "></path>
                <path d="M8.7685618,14.786798 C12.2906308,10.9053211 28.0442009,8.37577286 46.5362737,8.37577286 C65.0283465,8.37577286 13.7801327,17.5922217 10.6915748,21.0634553 C7.60301696,24.5346889 4.8158651,30.0669746 4.8158651,42.5890139 C4.8158651,47.2825001 6.28015806,60.3544516 10.0012975,61.8566375 C16.2666431,64.3858934 27.8456888,66.365038 40.0701234,66.468064 C52.7774131,66.5751594 59.8775785,67.4545992 61.3706195,69.1063834 C61.9404823,69.2659207 57.1297417,69.5583568 46.9383978,69.9836915 C31.651382,70.6216935 12.1294683,69.1566007 7.94684202,64.7261018 C3.76421573,60.295603 2.58932007,49.5746888 2.09552904,41.0938832 C1.60173802,32.6130776 5.24649276,18.668275 8.7685618,14.786798 Z" id="Path-4" fill="#000000" opacity="0.0733816964"></path>
                <path d="M10.5367783,22.1185118 C12.9354466,20.3441375 22.4795937,18.3246352 38.3745351,18.3246352 C54.2694765,18.3246352 63.5160564,22.7479833 65.137855,24.291475 C66.7596536,25.8349667 69.6282372,33.8291521 69.3959027,43.6869897 C69.1635682,53.5448273 67.0019152,61.1299055 64.2311691,61.9938929 C61.460423,62.8578803 47.8508007,65.3678127 37.4404875,65.7440797 C27.0301743,66.1203467 11.721251,62.7648491 9.69914023,61.0822285 C7.67702946,59.3996078 5.67816122,51.3517996 5.67816122,42.5679967 C5.67816122,33.7841938 8.13811004,23.892886 10.5367783,22.1185118 Z" id="Path-5" fill="#000000"></path>
                <path d="M10.5367783,22.1185118 C12.9354466,20.3441375 22.4795937,18.3246352 38.3745351,18.3246352 C54.2694765,18.3246352 63.5160564,22.7479833 65.137855,24.291475 C65.9303072,25.0456644 49.6604267,30.201062 36.1921271,39.2197606 C22.0967846,48.6583424 10.733196,61.9426777 9.69914023,61.0822285 C7.67702946,59.3996078 5.67816122,51.3517996 5.67816122,42.5679967 C5.67816122,33.7841938 8.13811004,23.892886 10.5367783,22.1185118 Z" id="Path-5" fill="url(#linearGradient-3)" opacity="0.356026786"></path>
                <path d="M61,16.5842682 C62.4443437,9.03664293 63.1965939,4.98220135 63.2567505,4.42094344 C63.3169072,3.85968552 64.0090007,3.85968552 65.3330311,4.42094344 C64.1795638,11.8344559 63.5451502,15.7959857 63.4297903,16.3055328 C63.3144305,16.8150798 62.5045004,16.9079916 61,16.5842682 Z" id="Path-8" fill="#DADADA"></path>
                <circle id="Oval" fill="url(#radialGradient-4)" cx="64.5" cy="2.5" r="2.5"></circle>
                <g id="Group-2" transform="translate(3.000000, 57.000000)">
                    <path d="M6.07671764,4.44320126 C2.73928534,7.45906986 0.894398504,12.9129291 0.790063185,16.4178052 C0.685727866,19.9226814 4.48463223,19.5565595 7.36565786,18.9299981 C10.2466835,18.3034367 13.3203823,10.419822 13.8464471,9.0981039 C14.3725119,7.77638582 14.957008,1.8580018 13.707267,1.10927265 C12.4575259,0.360543487 9.41414994,1.42733265 6.07671764,4.44320126 Z" id="Path-11" fill="#EAEAEA"></path>
                    <path d="M6.07671764,4.44320126 C2.73928534,7.45906986 0.894398504,12.9129291 0.790063185,16.4178052 C0.685727866,19.9226814 5.18413773,19.2568867 5.7135097,19.1417597 C6.24288167,19.0266326 2.65575802,17.0976958 4.33865428,12.9988147 C6.02155055,8.89993354 13.7613684,1.08857675 13.1835759,0.74241694 C12.6057833,0.396257129 9.41414994,1.42733265 6.07671764,4.44320126 Z" id="Path-11" fill="#CACACA"></path>
                </g>
                <g id="Lights" transform="translate(53.000000, 77.000000)">
                    <g id="Oval-2">
                        <use fill="black" fill-opacity="1" filter="url(#filter-6)" xlink:href="#path-5"></use>
                        <use fill="#7ED321" fill-rule="evenodd" xlink:href="#path-5"></use>
                    </g>
                    <path d="M1.56125312,2.33295044 C2.73762541,2.33295044 3,3.32842712 3,2.5 C3,1.67157288 2.32842712,1 1.5,1 C0.671572875,1 0,1.67157288 0,2.5 C0,3.32842712 0.38488084,2.33295044 1.56125312,2.33295044 Z" id="Oval-2" fill="#FFFFFF" opacity="0.35"></path>
                    <g id="Oval-2">
                        <use fill="black" fill-opacity="1" filter="url(#filter-8)" xlink:href="#path-7"></use>
                        <use fill="#D0021B" fill-rule="evenodd" xlink:href="#path-7"></use>
                    </g>
                    <path d="M6.5,1.19707382 C7.95277373,1.19707382 8,2.32842712 8,1.5 C8,0.671572875 7.32842712,0 6.5,0 C5.67157288,0 5,0.671572875 5,1.5 C5,2.32842712 5.04722627,1.19707382 6.5,1.19707382 Z" id="Oval-2" fill="#FFFFFF" opacity="0.35"></path>
                </g>
                <g id="Oval-3">
                    <use fill="black" fill-opacity="1" filter="url(#filter-10)" xlink:href="#path-9"></use>
                    <use fill="#FFFFFF" fill-rule="evenodd" xlink:href="#path-9"></use>
                </g>
                <g id="Oval-3">
                    <use fill="black" fill-opacity="1" filter="url(#filter-12)" xlink:href="#path-11"></use>
                    <use fill="#FFFFFF" fill-rule="evenodd" xlink:href="#path-11"></use>
                </g>
                <g id="Path-17" stroke-linecap="round">
                    <use fill="black" fill-opacity="1" filter="url(#filter-14)" xlink:href="#path-13"></use>
                    <use stroke="#FFFFFF" stroke-width="2" xlink:href="#path-13"></use>
                </g>
                <g id="Path-17" stroke-linecap="round">
                    <use fill="black" fill-opacity="1" filter="url(#filter-16)" xlink:href="#path-15"></use>
                    <use stroke="#FFFFFF" stroke-width="2" xlink:href="#path-15"></use>
                </g>
                <g id="blue-logo" transform="translate(21.000000, 72.000000)">
                    <rect id="Rectangle" x="0" y="0" width="21" height="21"></rect>
                    <g id="logo-white" transform="translate(3.000000, 3.000000)" fill="#218FFF" fill-rule="nonzero">
                        <path d="M10.5054402,3.91145379 C9.68947965,3.05944968 8.68654313,2.63345403 7.49660057,2.63345403 C6.30665803,2.63345403 5.30372148,3.05944968 4.48776088,3.91145379 C3.67180028,4.76345787 3.2638261,5.79294739 3.2638261,6.99995318 C3.2638261,8.20695898 3.67180028,9.23322122 4.48776088,10.0787707 C5.30372148,10.9243203 6.30665803,11.3470887 7.49660057,11.3470887 C8.68654313,11.3470887 9.68947965,10.9243203 10.5054402,10.0787707 C11.3214008,9.23322122 11.7293751,8.20695898 11.7293751,6.99995318 C11.7293751,5.79294739 11.3214008,4.76345787 10.5054402,3.91145379 Z M7.48640111,13.9805427 C5.3785029,13.9805427 3.60381519,13.3125041 2.16228479,11.9764067 C0.720754388,10.6403094 0,8.9782809 0,6.99027136 C0,5.00226182 0.720754388,3.34023329 2.16228479,2.00413597 C3.60381519,0.668038643 5.3785029,0 7.48640111,0 C9.59429936,0 11.368987,0.668038643 12.8105174,2.00413597 C14.2520478,3.34023329 14.9728022,5.00226182 14.9728022,6.99027136 C14.9728022,8.9782809 14.2520478,10.6403094 12.8105174,11.9764067 C11.368987,13.3125041 9.59429936,13.9805427 7.48640111,13.9805427 Z" id="O"></path>
                    </g>
                    <path d="M17.234,16.7524752 L17.234,16 L19.802,16 L19.802,16.6110325 L18.944,17.533239 C19.2800017,17.5860446 19.5399991,17.7189994 19.724,17.9321075 C19.9080009,18.1452156 20,18.3913234 20,18.6704385 C20,19.0853392 19.8510015,19.4106541 19.553,19.6463932 C19.2549985,19.8821322 18.8740023,20 18.41,20 C17.9459977,20 17.4760024,19.8453575 17,19.5360679 L17.384,18.834512 C17.780002,19.0985397 18.1339985,19.2305516 18.446,19.2305516 C18.634001,19.2305516 18.7889994,19.1871763 18.911,19.1004243 C19.0330006,19.0136724 19.094,18.8882611 19.094,18.7241867 C19.094,18.5601123 19.0240007,18.4299863 18.884,18.3338048 C18.7439993,18.2376233 18.5500013,18.1895332 18.302,18.1895332 C18.1699993,18.1895332 17.9840012,18.225365 17.744,18.2970297 L17.744,17.6463932 L18.548,16.7524752 L17.234,16.7524752 Z" id="3" fill="#218FFF" fill-rule="nonzero"></path>
                </g>
            </g>
        </g>
    </g>
</svg>
